# Blender 3.3.1
# www.blender.org
o Plane
v 0.000000 0.000000 0.500000
v 1.439677 0.682906 0.500000
v 0.000000 0.000000 -0.500000
v 1.439677 0.682906 -0.500000
v 0.356802 0.563149 0.500000
v 0.830250 0.808350 0.500000
v 0.830250 0.808350 -0.500000
v 0.356802 0.563149 -0.500000
v -0.396249 0.000000 -0.304937
v -1.274271 0.682906 0.836004
v 0.396249 0.000000 0.304937
v -0.481773 0.682906 1.445878
v -0.613853 0.563149 -0.022172
v -0.902597 0.808350 0.353034
v -0.110099 0.808350 0.962909
v 0.178645 0.563149 0.587702
v 0.458332 0.000000 -0.199829
v -0.117045 0.682906 -1.519530
v -0.458332 0.000000 0.199829
v -1.033710 0.682906 -1.119872
v 0.315734 0.563149 -0.526896
v 0.126517 0.808350 -0.960889
v -0.790148 0.808350 -0.561232
v -0.600931 0.563149 -0.127239
v 0.065195 0.000000 -0.495731
v -1.012448 1.165174 -0.637454
v -0.065195 0.000000 0.495732
v -1.142837 1.165174 0.354009
v -0.058034 0.654978 -0.511937
v -0.404894 1.057326 -0.557554
v -0.535283 1.057326 0.433909
v -0.188424 0.654978 0.479526
v 0.460139 0.000000 0.195631
v 0.885412 1.165174 -0.804640
v -0.460140 0.000000 -0.195632
v -0.034867 1.165174 -1.195903
v 0.508770 0.654978 0.081250
v 0.645651 1.057326 -0.240706
v -0.274628 1.057326 -0.631969
v -0.411510 0.654978 -0.310013
v -0.396531 0.000000 0.304571
v 0.265559 1.165174 1.166566
v 0.396531 0.000000 -0.304571
v 1.058620 1.165174 0.557424
v -0.320820 0.654978 0.403141
v -0.107714 1.057326 0.680590
v 0.685347 1.057326 0.071448
v 0.472241 0.654978 -0.206002
vn 0.2016 0.9795 -0.0000
vn -0.8447 0.5352 -0.0000
vn -0.4599 0.8880 -0.0000
vn -0.1230 0.9795 0.1598
vn 0.5152 0.5352 -0.6694
vn 0.2805 0.8880 -0.3645
vn -0.0806 0.9795 -0.1848
vn 0.3376 0.5352 0.7743
vn 0.1838 0.8880 0.4216
vn 0.1719 0.9849 0.0226
vn 0.9741 0.1864 0.1281
vn 0.7482 0.6562 0.0984
vn -0.0678 0.9849 0.1595
vn -0.3844 0.1864 0.9041
vn -0.2953 0.6562 0.6945
vn -0.1056 0.9849 -0.1375
vn -0.5985 0.1864 -0.7792
vn -0.4597 0.6562 -0.5985
vt 0.999929 1.000000
vt 0.000071 1.000000
vt 0.999929 0.000071
vt 0.000071 0.000071
vt 0.666643 1.000000
vt 0.333357 1.000000
vt 0.333357 0.000071
vt 0.666643 0.000071
vt 0.999929 1.000000
vt 0.000071 1.000000
vt 0.999929 0.000071
vt 0.000071 0.000071
vt 0.666643 1.000000
vt 0.333357 1.000000
vt 0.333357 0.000071
vt 0.666643 0.000071
vt 0.999929 1.000000
vt 0.000071 1.000000
vt 0.999929 0.000071
vt 0.000071 0.000071
vt 0.666643 1.000000
vt 0.333357 1.000000
vt 0.333357 0.000071
vt 0.666643 0.000071
vt 0.999929 1.000000
vt 0.000071 1.000000
vt 0.999929 0.000071
vt 0.000071 0.000071
vt 0.666643 1.000000
vt 0.333357 1.000000
vt 0.333357 0.000071
vt 0.666643 0.000071
vt 0.999929 1.000000
vt 0.000071 1.000000
vt 0.999929 0.000071
vt 0.000071 0.000071
vt 0.666643 1.000000
vt 0.333357 1.000000
vt 0.333357 0.000071
vt 0.666643 0.000071
vt 0.999929 1.000000
vt 0.000071 1.000000
vt 0.999929 0.000071
vt 0.000071 0.000071
vt 0.666643 1.000000
vt 0.333357 1.000000
vt 0.333357 0.000071
vt 0.666643 0.000071
s 0
f 6/6/1 2/2/1 4/4/1 7/7/1
f 1/1/2 5/5/2 8/8/2 3/3/2
f 5/5/3 6/6/3 7/7/3 8/8/3
f 14/14/4 10/10/4 12/12/4 15/15/4
f 9/9/5 13/13/5 16/16/5 11/11/5
f 13/13/6 14/14/6 15/15/6 16/16/6
f 22/22/7 18/18/7 20/20/7 23/23/7
f 17/17/8 21/21/8 24/24/8 19/19/8
f 21/21/9 22/22/9 23/23/9 24/24/9
f 30/30/10 26/26/10 28/28/10 31/31/10
f 25/25/11 29/29/11 32/32/11 27/27/11
f 29/29/12 30/30/12 31/31/12 32/32/12
f 38/38/13 34/34/13 36/36/13 39/39/13
f 33/33/14 37/37/14 40/40/14 35/35/14
f 37/37/15 38/38/15 39/39/15 40/40/15
f 46/46/16 42/42/16 44/44/16 47/47/16
f 41/41/17 45/45/17 48/48/17 43/43/17
f 45/45/18 46/46/18 47/47/18 48/48/18
